<svg width="143" height="51" viewBox="0 0 143 51" fill="none" xmlns="http://www.w3.org/2000/svg">
<path d="M4.90234 21.9688C5.00391 20.3672 5.64062 18.9766 6.8125 17.7969C8.10156 16.5078 9.64844 15.8633 11.4531 15.8633C13.2656 15.8633 14.8125 16.5078 16.0938 17.7969C17.2656 18.9688 17.9023 20.3594 18.0039 21.9688H18.0156V26.8555L13.2227 28.7656C13.2305 28.7578 13.2383 28.75 13.2461 28.7422C12.6836 28.8984 12.0859 28.9766 11.4531 28.9766C9.64062 28.9766 8.09375 28.332 6.8125 27.043C5.53125 25.7617 4.89062 24.2148 4.89062 22.4023V21.9688H4.90234ZM14.0312 22.4258C14.0234 21.7148 13.7695 21.1094 13.2695 20.6094C12.7695 20.1016 12.1641 19.8477 11.4531 19.8477C10.7422 19.8477 10.1367 20.1016 9.63672 20.6094C9.24609 21 9.00391 21.4531 8.91016 21.9688H8.875V22.4023C8.875 23.1133 9.12891 23.7227 9.63672 24.2305C10.1367 24.7383 10.7422 24.9922 11.4531 24.9922C12.1641 24.9922 12.7695 24.7383 13.2695 24.2305C13.7695 23.7305 14.0234 23.1289 14.0312 22.4258ZM18.0039 27.582C18.0039 29.3867 17.3594 30.9297 16.0703 32.2109C14.7812 33.5 13.2344 34.1445 11.4297 34.1445H6.625L7.83203 30.1602H11.4297C12.1328 30.1602 12.7422 29.9062 13.2578 29.3984C13.7656 28.8906 14.0195 28.2852 14.0195 27.582V25.2383L18.0039 21.9688V27.582ZM20.5352 28.9766C18.7305 28.9766 17.1875 28.332 15.9062 27.043C14.6172 25.7539 14.2305 24.457 14.7461 23.1523L17.957 22.4023C17.957 23.1055 18.2109 23.7148 18.7188 24.2305C19.2266 24.7383 19.832 24.9922 20.5352 24.9922H21.3438L21.5664 28.9766H20.5352ZM20.9688 29V25.0156H31.5625C32.2656 25.0156 32.875 24.7617 33.3906 24.2539C33.8984 23.7461 34.1523 23.1406 34.1523 22.4375C34.1523 21.7266 33.8984 21.1172 33.3906 20.6094C32.8828 20.1016 32.2734 19.8477 31.5625 19.8477H22.4453L24.1562 15.8633H31.5625C33.3672 15.8633 34.9141 16.5078 36.2031 17.7969C37.4922 19.0859 38.1367 20.6328 38.1367 22.4375C38.1367 24.2422 37.4922 25.7852 36.2031 27.0664C34.9141 28.3555 33.3672 29 31.5625 29H20.9688ZM31.4219 34.3906H27.4609V30.418H31.4219V34.3906ZM47.9805 16.8359H51.9531V22.5312H51.9648C52.0352 23.1797 52.3125 23.7422 52.7969 24.2188C53.3359 24.75 53.9766 25.0156 54.7188 25.0156H55.0703V29H54.7188C53.7188 29 52.7539 28.7773 51.8242 28.332C51.8008 28.4414 51.7734 28.5469 51.7422 28.6484L51.7305 28.6133C51.4414 29.7227 50.8594 30.7148 49.9844 31.5898C48.6719 32.8945 47.0938 33.5469 45.25 33.5469H41.5703L43.3281 29.5625H45.25C45.9922 29.5625 46.6328 29.2969 47.1719 28.7656C47.7109 28.2344 47.9805 27.5977 47.9805 26.8555V16.8359ZM57.9648 16.8242H61.9492V22.4375C61.9492 23.1406 62.207 23.7461 62.7227 24.2539C63.2305 24.7617 63.8359 25.0156 64.5391 25.0156H65.3945V29H64.5391C62.7656 29 61.2383 28.3789 59.957 27.1367C58.6914 28.3789 57.168 29 55.3867 29H54.6602V25.0156H55.3867C56.0898 25.0156 56.6953 24.7617 57.2031 24.2539C57.7109 23.7461 57.9648 23.1406 57.9648 22.4375V16.8242ZM61.9961 11.9609V15.9453H54.2852L56.043 11.9609H61.9961ZM64.1992 29V25.0156H74.1602C74.8711 25.0156 75.4766 24.7617 75.9766 24.2539C76.3594 23.8711 76.5625 23.4375 76.5859 22.9531C76.5703 22.4531 76.3672 22.0117 75.9766 21.6289C75.4766 21.1211 74.8711 20.8672 74.1602 20.8672H67.9141L71.7695 12.3008L75.9883 12.1836L74.0195 16.8828H74.2539C76.0273 16.9062 77.543 17.5508 78.8008 18.8164C79.9414 19.9492 80.543 21.2891 80.6055 22.8359C80.6133 22.9844 80.6055 23.1055 80.582 23.1992C80.5039 24.6758 79.9102 25.9648 78.8008 27.0664C77.5195 28.3555 75.9727 29 74.1602 29H64.1992ZM81.9297 25.0156H86.5938C87.2969 25.0156 87.9062 24.7617 88.4219 24.2539C88.9297 23.7461 89.1836 23.1406 89.1836 22.4375C89.1836 21.7266 88.9297 21.1172 88.4219 20.6094C87.9141 20.1016 87.3047 19.8477 86.5938 19.8477H81.4961V15.8633H86.5938C88.3984 15.8633 89.9453 16.5078 91.2344 17.7969C92.5234 19.0859 93.168 20.6328 93.168 22.4375C93.168 24.2422 92.5234 25.7852 91.2344 27.0664C89.9453 28.3555 88.3984 29 86.5938 29H80.6172L81.9297 25.0156Z" fill="#006DFF"/>
<g filter="url(#filter0_d_3391_1962)">
<path d="M113.924 33.572C113.963 35.2772 113.798 36.7093 114.786 37.7842C115.847 38.9398 116.478 38.9151 118.148 38.8498C118.611 38.8316 119.155 38.8103 119.811 38.8103C120.257 38.8103 120.646 38.8152 120.989 38.8196C122.963 38.8446 123.406 38.8503 124.434 37.7842C125.286 36.9005 125.298 35.3158 125.311 33.572C125.316 32.8467 125.311 32.1928 125.389 31.3419C125.585 30.3575 125.891 30.106 126.494 29.6902C127.097 29.2743 127.399 29.2397 128.253 29.1C129.107 28.9604 130.645 28.7738 131.659 28.7302C133.032 28.6711 134.115 28.6246 134.635 28.0489C135.539 27.0479 135.58 26.2971 135.439 23.4441C135.412 22.8922 135.394 22.4253 135.379 22.0236C135.311 20.2035 135.294 19.7233 134.635 18.7392C133.753 17.6662 132.335 17.6599 129.829 17.6487C128.945 17.6447 127.925 17.6402 126.745 17.588C125.891 17.3272 125.891 17.2271 125.59 16.9268C125.256 16.5949 125.072 16.1343 125.037 15.3858C125.014 14.8958 125.006 14.3891 124.998 13.8884C124.972 12.1542 124.946 10.4902 124.283 9.82995C123.465 9.01469 121.473 9.09454 119.603 9.16953C119.521 9.17281 119.44 9.17608 119.359 9.17926C119.187 9.18598 119.016 9.19189 118.845 9.19778C117.118 9.2574 115.454 9.31485 114.585 10.1803C113.936 10.826 113.952 12.1527 113.969 13.6193C113.977 14.3127 113.985 15.0374 113.924 15.7361C113.867 16.3906 113.63 16.9268 113.178 17.2771C112.725 17.6275 112.173 17.7346 111.771 17.7882C111.318 17.8484 109.365 17.9155 108.207 17.8905C106.396 17.8514 104.807 17.8171 104.132 18.4889C103.113 19.5047 103.119 21.1594 103.126 22.9815C103.127 23.1346 103.127 23.2889 103.127 23.4441C103.127 25.4733 103.479 27.5484 104.434 28.4994C105.066 29.1293 106.378 29.0996 107.837 29.0664C108.553 29.0501 108.553 29.1 109.308 29.1C109.961 29.1595 110.854 29.1761 111.418 29.2897C111.981 29.4034 112.977 29.8412 113.686 31.0883C113.924 32.5932 113.91 32.935 113.924 33.572Z" fill="#006DFF"/>
<path d="M119.553 7.9209C120.467 7.88425 121.518 7.84008 122.446 7.9209C123.314 7.9964 124.418 8.20068 125.165 8.94434C125.818 9.59503 126.024 10.5592 126.119 11.2959C126.223 12.0959 126.235 13.0228 126.248 13.8691C126.256 14.3735 126.263 14.8598 126.285 15.3262C126.299 15.6152 126.339 15.7843 126.375 15.8809C126.406 15.965 126.438 16.007 126.472 16.041C126.521 16.0904 126.563 16.1349 126.595 16.168C126.628 16.203 126.645 16.2191 126.659 16.2334C126.689 16.2474 126.772 16.2826 126.963 16.3447C128.047 16.3892 128.992 16.3947 129.835 16.3984C131.047 16.4038 132.152 16.4046 133.059 16.5645C134.026 16.735 134.913 17.1083 135.601 17.9453C135.626 17.9768 135.651 18.0101 135.674 18.0439C136.065 18.6288 136.318 19.1464 136.454 19.8203C136.574 20.4144 136.596 21.1109 136.628 21.9775C136.643 22.3791 136.661 22.8394 136.688 23.3828C136.756 24.7721 136.794 25.8131 136.664 26.6357C136.515 27.5795 136.152 28.2341 135.562 28.8867C135.023 29.4843 134.286 29.7062 133.688 29.8135C133.08 29.9225 132.372 29.9512 131.713 29.9795C130.763 30.0204 129.277 30.1996 128.455 30.334C127.985 30.4108 127.799 30.4395 127.642 30.4873C127.537 30.5192 127.427 30.5652 127.204 30.7188C126.894 30.9327 126.831 30.9966 126.793 31.0479C126.77 31.0793 126.702 31.1792 126.628 31.5234C126.562 32.2776 126.566 32.8598 126.561 33.5811C126.554 34.4281 126.55 35.3585 126.423 36.1904C126.295 37.0232 126.02 37.9396 125.334 38.6514C124.757 39.2499 124.196 39.7044 123.387 39.9189C122.696 40.1019 121.885 40.0809 120.974 40.0693C120.63 40.065 120.248 40.0605 119.811 40.0605C119.182 40.0606 118.66 40.0805 118.196 40.0986C117.428 40.1287 116.642 40.1714 115.924 39.9844C115.109 39.7719 114.488 39.3078 113.865 38.6299C113.136 37.8363 112.864 36.9286 112.758 36.0674C112.661 35.2803 112.691 34.3391 112.674 33.6006C112.661 33.0349 112.673 32.7513 112.485 31.5225C111.996 30.7792 111.408 30.5626 111.17 30.5146C110.977 30.4758 110.687 30.4477 110.311 30.4219C109.992 30.4 109.586 30.3772 109.253 30.3486C108.874 30.3474 108.668 30.3355 108.487 30.3252C108.329 30.3162 108.184 30.3092 107.865 30.3164C107.161 30.3324 106.375 30.3522 105.684 30.2734C105.014 30.1972 104.174 30.0049 103.552 29.3848C102.83 28.6659 102.433 27.6398 102.205 26.6592C101.97 25.6484 101.877 24.5221 101.877 23.4443C101.877 23.292 101.877 23.1398 101.876 22.9863C101.873 22.1025 101.866 21.1229 102.011 20.2324C102.159 19.3223 102.484 18.3665 103.25 17.6035C103.916 16.9404 104.872 16.7542 105.62 16.6797C106.419 16.6002 107.353 16.6216 108.234 16.6406C109.376 16.6652 111.251 16.596 111.605 16.5488C111.969 16.5004 112.237 16.4249 112.412 16.2891C112.512 16.2119 112.642 16.0453 112.679 15.627C112.734 15.0005 112.727 14.3384 112.719 13.6338C112.711 12.9255 112.699 12.1337 112.787 11.4355C112.873 10.757 113.077 9.91756 113.702 9.29492C114.406 8.59426 115.342 8.30179 116.177 8.15527C117.02 8.00725 117.962 7.97726 118.803 7.94824C118.974 7.94234 119.142 7.93724 119.31 7.93066C119.39 7.92751 119.471 7.92418 119.553 7.9209Z" stroke="#006DFF" stroke-width="2.5" stroke-miterlimit="16" stroke-linejoin="round"/>
</g>
<g filter="url(#filter1_dd_3391_1962)">
<path d="M114.215 33.009C114.252 34.6139 114.096 35.9617 115.03 36.9734C116.035 38.061 116.632 38.0377 118.211 37.9762C118.649 37.9591 119.164 37.9391 119.784 37.9391C120.206 37.9391 120.574 37.9438 120.899 37.9479C122.765 37.9714 123.185 37.9767 124.157 36.9734C124.963 36.1417 124.974 34.6501 124.987 33.009C124.992 32.3263 124.987 31.7108 125.06 30.91C125.246 29.9835 125.536 29.7468 126.106 29.3554C126.676 28.9641 126.962 28.9315 127.77 28.8C128.578 28.6686 130.033 28.493 130.992 28.4519C132.29 28.3964 133.315 28.3525 133.807 27.8108C134.662 26.8686 134.7 26.162 134.567 23.4768C134.541 22.9573 134.525 22.5179 134.511 22.1399C134.447 20.4268 134.43 19.9749 133.807 19.0486C132.973 18.0388 131.632 18.0328 129.261 18.0223C128.424 18.0186 127.459 18.0143 126.344 17.9652C125.536 17.7197 125.536 17.6255 125.25 17.3428C124.935 17.0305 124.761 16.597 124.727 15.8925C124.705 15.4313 124.698 14.9545 124.691 14.4832C124.666 12.851 124.641 11.2849 124.014 10.6635C123.24 9.89618 121.357 9.97133 119.587 10.0419C119.51 10.045 119.433 10.0481 119.356 10.0511C119.194 10.0574 119.032 10.063 118.871 10.0685C117.237 10.1246 115.662 10.1787 114.84 10.9932C114.227 11.601 114.242 12.8496 114.258 14.2299C114.265 14.8825 114.273 15.5646 114.215 16.2222C114.161 16.8382 113.937 17.3428 113.509 17.6726C113.081 18.0024 112.559 18.1032 112.178 18.1536C111.75 18.2103 109.902 18.2734 108.807 18.2499C107.094 18.2131 105.591 18.1808 104.953 18.8131C103.988 19.7691 103.994 21.3265 104.001 23.0414C104.002 23.1855 104.002 23.3307 104.002 23.4768C104.002 25.3866 104.335 27.3397 105.238 28.2347C105.836 28.8276 107.077 28.7996 108.457 28.7684C109.135 28.7531 109.135 28.8 109.849 28.8C110.466 28.856 111.311 28.8716 111.844 28.9786C112.377 29.0856 113.319 29.4976 113.99 30.6713C114.215 32.0877 114.202 32.4094 114.215 33.009Z" fill="#006DFF"/>
<path d="M119.558 9.29297C120.429 9.25819 121.393 9.21787 122.238 9.29102C123.047 9.361 123.952 9.54657 124.542 10.1309C125.05 10.6339 125.233 11.4111 125.322 12.0977C125.416 12.822 125.428 13.6682 125.44 14.4717C125.448 14.9451 125.455 15.4095 125.477 15.8564C125.505 16.4482 125.641 16.6749 125.778 16.8105C125.821 16.8529 125.858 16.8912 125.888 16.9219C125.919 16.9546 125.939 16.9749 125.957 16.9932C125.987 17.0231 125.999 17.0328 126.012 17.041C126.049 17.0654 126.148 17.1162 126.475 17.2188C127.532 17.2632 128.452 17.2689 129.264 17.2725C130.424 17.2776 131.426 17.2794 132.239 17.4219C133.035 17.5615 133.728 17.8474 134.277 18.4473L134.385 18.5713L134.429 18.6299C134.778 19.1487 134.988 19.5841 135.104 20.1494C135.209 20.6668 135.23 21.2818 135.261 22.1123C135.275 22.4902 135.291 22.9253 135.316 23.4395C135.382 24.7597 135.413 25.6925 135.299 26.415C135.173 27.2104 134.873 27.7533 134.362 28.3154C133.948 28.7715 133.367 28.9565 132.833 29.0518C132.293 29.148 131.657 29.1741 131.024 29.2012C130.103 29.2406 128.679 29.4117 127.89 29.54C127.461 29.6098 127.249 29.6428 127.065 29.6982C126.913 29.7443 126.768 29.8103 126.53 29.9736C126.24 30.173 126.124 30.2688 126.04 30.3809C125.967 30.4792 125.882 30.6437 125.803 31.0244C125.737 31.7646 125.742 32.3354 125.736 33.0146C125.73 33.8203 125.725 34.6625 125.61 35.4092C125.495 36.1567 125.255 36.9174 124.695 37.4951C124.171 38.0362 123.708 38.3991 123.055 38.5713C122.473 38.7247 121.778 38.7095 120.89 38.6982C120.565 38.6941 120.201 38.6895 119.784 38.6895C119.18 38.6895 118.679 38.7085 118.24 38.7256C117.49 38.7548 116.82 38.7881 116.217 38.6318C115.556 38.4604 115.037 38.0863 114.479 37.4824C113.87 36.8229 113.636 36.0638 113.542 35.3057C113.454 34.5925 113.482 33.7599 113.466 33.0264C113.453 32.469 113.465 32.183 113.27 30.9297C112.728 30.0591 112.032 29.7812 111.696 29.7139C111.483 29.6711 111.183 29.6425 110.827 29.6182C110.507 29.5963 110.128 29.5761 109.815 29.5488C109.458 29.5481 109.269 29.5371 109.097 29.5273C108.938 29.5184 108.789 29.5115 108.475 29.5186C107.8 29.5338 107.088 29.5506 106.47 29.4805C105.865 29.4119 105.193 29.2462 104.71 28.7676C104.111 28.1742 103.76 27.3001 103.551 26.4072C103.338 25.4963 103.252 24.4696 103.252 23.4766C103.252 23.3323 103.252 23.1882 103.251 23.0439C103.248 22.203 103.242 21.3182 103.372 20.5215C103.504 19.7126 103.788 18.9112 104.425 18.2803C104.941 17.7687 105.71 17.6029 106.403 17.5342C107.127 17.4625 107.981 17.4819 108.823 17.5C109.909 17.5233 111.711 17.4591 112.08 17.4102C112.437 17.3628 112.79 17.2799 113.052 17.0781C113.267 16.9118 113.426 16.6291 113.468 16.1562C113.522 15.5422 113.515 14.8976 113.508 14.2383C113.5 13.5633 113.491 12.8499 113.569 12.2275C113.647 11.6165 113.825 10.9446 114.312 10.4609C114.885 9.89357 115.665 9.63992 116.422 9.50781C117.184 9.37476 118.041 9.34692 118.845 9.31934C119.006 9.31378 119.167 9.308 119.327 9.30176C119.403 9.29878 119.48 9.29605 119.558 9.29297Z" stroke="white" stroke-width="1.5" stroke-linejoin="round"/>
</g>
<defs>
<filter id="filter0_d_3391_1962" x="96.625" y="6.625" width="45.375" height="42.75" filterUnits="userSpaceOnUse" color-interpolation-filters="sRGB">
<feFlood flood-opacity="0" result="BackgroundImageFix"/>
<feColorMatrix in="SourceAlpha" type="matrix" values="0 0 0 0 0 0 0 0 0 0 0 0 0 0 0 0 0 0 127 0" result="hardAlpha"/>
<feOffset dy="4"/>
<feGaussianBlur stdDeviation="2"/>
<feComposite in2="hardAlpha" operator="out"/>
<feColorMatrix type="matrix" values="0 0 0 0 0 0 0 0 0 0 0 0 0 0 0 0 0 0 0.12 0"/>
<feBlend mode="normal" in2="BackgroundImageFix" result="effect1_dropShadow_3391_1962"/>
<feBlend mode="normal" in="SourceGraphic" in2="effect1_dropShadow_3391_1962" result="shape"/>
</filter>
<filter id="filter1_dd_3391_1962" x="91.5" y="5.5" width="50.625" height="45" filterUnits="userSpaceOnUse" color-interpolation-filters="sRGB">
<feFlood flood-opacity="0" result="BackgroundImageFix"/>
<feColorMatrix in="SourceAlpha" type="matrix" values="0 0 0 0 0 0 0 0 0 0 0 0 0 0 0 0 0 0 127 0" result="hardAlpha"/>
<feOffset dy="4"/>
<feGaussianBlur stdDeviation="3"/>
<feComposite in2="hardAlpha" operator="out"/>
<feColorMatrix type="matrix" values="0 0 0 0 0 0 0 0 0 0 0 0 0 0 0 0 0 0 0.12 0"/>
<feBlend mode="normal" in2="BackgroundImageFix" result="effect1_dropShadow_3391_1962"/>
<feColorMatrix in="SourceAlpha" type="matrix" values="0 0 0 0 0 0 0 0 0 0 0 0 0 0 0 0 0 0 127 0" result="hardAlpha"/>
<feOffset dx="-4" dy="4"/>
<feGaussianBlur stdDeviation="3.5"/>
<feComposite in2="hardAlpha" operator="out"/>
<feColorMatrix type="matrix" values="0 0 0 0 0 0 0 0 0 0 0 0 0 0 0 0 0 0 0.05 0"/>
<feBlend mode="normal" in2="effect1_dropShadow_3391_1962" result="effect2_dropShadow_3391_1962"/>
<feBlend mode="normal" in="SourceGraphic" in2="effect2_dropShadow_3391_1962" result="shape"/>
</filter>
</defs>
</svg>
